<svg width="188" height="98" viewBox="0 0 188 98" fill="none" xmlns="http://www.w3.org/2000/svg">
<path d="M12.3028 74.1002C8.02207 74.1002 3.52478 73.2891 0 71.3356V36.8691C3.46958 34.9708 7.96686 34.1045 12.3028 34.1045C16.6387 34.1045 21.0298 34.9156 24.4951 36.8691V50.0934H15.7681V41.0946C14.7404 40.6614 13.4919 40.5001 12.2476 40.5001C11.0033 40.5001 9.8609 40.6614 8.77799 41.0946V67.1101C9.8057 67.5432 10.999 67.7046 12.2476 67.7046C13.4961 67.7046 14.6852 67.5432 15.7681 67.1101V58.1155H24.4951V71.3398C21.0808 73.2381 16.5835 74.0492 12.3028 74.1044V74.1002Z" fill="#F7DD43"/>
<path d="M40.8622 74.1001C36.2545 74.1001 31.8124 73.1234 28.2876 71.1189V37.0304C31.7572 35.0812 36.2035 34.1044 40.8622 34.1044C45.5209 34.1044 49.8568 35.026 53.3264 37.0304V71.1189C49.912 73.1234 45.4147 74.0449 40.8622 74.1001ZM44.6036 41.205C43.5759 40.7718 42.3273 40.5552 40.8112 40.5552C39.2952 40.5552 38.1018 40.7718 37.0699 41.205V66.9486C38.0976 67.437 39.3461 67.6536 40.8112 67.6536C42.2764 67.6536 43.5207 67.437 44.6036 66.9486V41.205Z" fill="#F7DD43"/>
<path d="M68.555 59.4659H66.2235V73.6118H57.3903V34.5928H68.555C73.8676 34.5928 77.8765 35.6757 81.0191 37.8968V56.162C77.9317 58.332 73.8634 59.4659 68.555 59.4659ZM72.2411 41.3112C71.43 40.7166 70.3428 40.4448 68.4997 40.4448H66.1131V53.6139H68.4997C70.2876 53.6139 71.3705 53.3421 72.2411 52.8028V41.3112Z" fill="#F7DD43"/>
<path d="M99.4966 73.6117V59.4659H92.9949V73.6117H84.2169V36.9752C87.4147 35.0769 91.912 34.1044 96.2479 34.1044C100.584 34.1044 105.026 35.0812 108.224 36.9752V73.6117H99.4966ZM99.4966 40.878C98.5751 40.4448 97.437 40.2282 96.2436 40.2282C95.0503 40.2282 93.9122 40.4448 92.9906 40.878V53.2869H99.4924V40.878H99.4966Z" fill="#F7DD43"/>
<path d="M151.312 74.5522L116.375 72.3335C116.875 69.6668 117.542 67.1355 118.375 64.7397C119.208 62.323 120.198 60.0626 121.344 57.9585C122.323 56.1668 123.573 54.2605 125.094 52.2397C126.615 50.198 128.396 48.0418 130.438 45.771C133.021 42.896 134.948 40.1355 136.219 37.4897C137.51 34.8439 138.156 32.3126 138.156 29.896C138.156 29.0001 137.969 28.1772 137.594 27.4272C137.24 26.6564 136.698 25.9585 135.969 25.3335C135.323 24.771 134.594 24.3439 133.781 24.0522C132.969 23.7397 132.094 23.5835 131.156 23.5835C129.948 23.5835 128.844 23.7293 127.844 24.021C126.844 24.3126 125.948 24.7397 125.156 25.3022C124.26 25.948 123.583 26.7189 123.125 27.6147C122.688 28.5105 122.469 29.5314 122.469 30.6772C122.469 31.2605 122.542 31.8126 122.688 32.3335C122.854 32.8543 123.062 33.3335 123.312 33.771C123.646 34.3335 124.031 34.7397 124.469 34.9897C124.927 35.2397 125.427 35.3647 125.969 35.3647C127.115 35.3647 127.969 35.1043 128.531 34.5835C129.115 34.0418 129.406 33.2397 129.406 32.1772C129.406 31.9064 129.365 31.6251 129.281 31.3335C129.219 31.021 129.125 30.698 129 30.3647C130.229 30.698 131.146 31.2397 131.75 31.9897C132.354 32.7189 132.656 33.6564 132.656 34.8022C132.656 35.6772 132.458 36.4585 132.062 37.146C131.667 37.8335 131.062 38.4272 130.25 38.9272C129.583 39.3439 128.844 39.6564 128.031 39.8647C127.219 40.073 126.354 40.1772 125.438 40.1772C123.062 40.1772 121.135 39.4272 119.656 37.9272C118.177 36.4272 117.438 34.5001 117.438 32.146C117.438 30.3335 117.833 28.698 118.625 27.2397C119.438 25.7814 120.635 24.521 122.219 23.4585C123.615 22.521 125.146 21.8335 126.812 21.396C128.479 20.9585 130.271 20.7397 132.188 20.7397C134.646 20.7397 136.833 21.0418 138.75 21.646C140.667 22.2501 142.323 23.146 143.719 24.3335C145.219 25.6251 146.344 27.198 147.094 29.0522C147.844 30.8855 148.219 32.9897 148.219 35.3647C148.219 37.1147 147.76 38.896 146.844 40.7085C145.927 42.5001 144.562 44.3335 142.75 46.2085C140.958 47.7918 139.156 49.3647 137.344 50.9272C135.552 52.4897 133.76 54.073 131.969 55.6772C129.844 57.5939 128.115 59.4272 126.781 61.1772C125.469 62.9064 124.562 64.5522 124.062 66.1147L149.094 61.4585L151.312 74.5522ZM145.531 32.8335C145.531 32.1251 145.333 31.5835 144.938 31.2085C144.562 30.8126 144 30.6147 143.25 30.6147C142.521 30.6147 141.969 30.8126 141.594 31.2085C141.219 31.5835 141.031 32.1251 141.031 32.8335C141.031 33.6043 141.219 34.1668 141.594 34.521C141.969 34.8751 142.521 35.0522 143.25 35.0522C144 35.0522 144.562 34.8751 144.938 34.521C145.333 34.1668 145.531 33.6043 145.531 32.8335ZM144.062 39.8647C144.062 39.073 143.781 38.396 143.219 37.8335C142.677 37.271 142 36.9897 141.188 36.9897C140.417 36.9897 139.74 37.271 139.156 37.8335C138.594 38.396 138.312 39.073 138.312 39.8647C138.312 40.6564 138.594 41.3335 139.156 41.896C139.74 42.4585 140.417 42.7397 141.188 42.7397C142 42.7397 142.677 42.4585 143.219 41.896C143.781 41.3335 144.062 40.6564 144.062 39.8647ZM138.75 45.6147C138.75 44.8647 138.562 44.3022 138.188 43.9272C137.812 43.5522 137.24 43.3647 136.469 43.3647C135.76 43.3647 135.208 43.5522 134.812 43.9272C134.438 44.3022 134.25 44.8647 134.25 45.6147C134.25 46.3647 134.438 46.9272 134.812 47.3022C135.208 47.6564 135.76 47.8335 136.469 47.8335C137.24 47.8335 137.812 47.6564 138.188 47.3022C138.562 46.9272 138.75 46.3647 138.75 45.6147ZM187.062 74.5522L152.125 72.3335C152.625 69.6668 153.292 67.1355 154.125 64.7397C154.958 62.323 155.948 60.0626 157.094 57.9585C158.073 56.1668 159.323 54.2605 160.844 52.2397C162.365 50.198 164.146 48.0418 166.188 45.771C168.771 42.896 170.698 40.1355 171.969 37.4897C173.26 34.8439 173.906 32.3126 173.906 29.896C173.906 29.0001 173.719 28.1772 173.344 27.4272C172.99 26.6564 172.448 25.9585 171.719 25.3335C171.073 24.771 170.344 24.3439 169.531 24.0522C168.719 23.7397 167.844 23.5835 166.906 23.5835C165.698 23.5835 164.594 23.7293 163.594 24.021C162.594 24.3126 161.698 24.7397 160.906 25.3022C160.01 25.948 159.333 26.7189 158.875 27.6147C158.438 28.5105 158.219 29.5314 158.219 30.6772C158.219 31.2605 158.292 31.8126 158.438 32.3335C158.604 32.8543 158.812 33.3335 159.062 33.771C159.396 34.3335 159.781 34.7397 160.219 34.9897C160.677 35.2397 161.177 35.3647 161.719 35.3647C162.865 35.3647 163.719 35.1043 164.281 34.5835C164.865 34.0418 165.156 33.2397 165.156 32.1772C165.156 31.9064 165.115 31.6251 165.031 31.3335C164.969 31.021 164.875 30.698 164.75 30.3647C165.979 30.698 166.896 31.2397 167.5 31.9897C168.104 32.7189 168.406 33.6564 168.406 34.8022C168.406 35.6772 168.208 36.4585 167.812 37.146C167.417 37.8335 166.812 38.4272 166 38.9272C165.333 39.3439 164.594 39.6564 163.781 39.8647C162.969 40.073 162.104 40.1772 161.188 40.1772C158.812 40.1772 156.885 39.4272 155.406 37.9272C153.927 36.4272 153.188 34.5001 153.188 32.146C153.188 30.3335 153.583 28.698 154.375 27.2397C155.188 25.7814 156.385 24.521 157.969 23.4585C159.365 22.521 160.896 21.8335 162.562 21.396C164.229 20.9585 166.021 20.7397 167.938 20.7397C170.396 20.7397 172.583 21.0418 174.5 21.646C176.417 22.2501 178.073 23.146 179.469 24.3335C180.969 25.6251 182.094 27.198 182.844 29.0522C183.594 30.8855 183.969 32.9897 183.969 35.3647C183.969 37.1147 183.51 38.896 182.594 40.7085C181.677 42.5001 180.312 44.3335 178.5 46.2085C176.708 47.7918 174.906 49.3647 173.094 50.9272C171.302 52.4897 169.51 54.073 167.719 55.6772C165.594 57.5939 163.865 59.4272 162.531 61.1772C161.219 62.9064 160.312 64.5522 159.812 66.1147L184.844 61.4585L187.062 74.5522ZM181.281 32.8335C181.281 32.1251 181.083 31.5835 180.688 31.2085C180.312 30.8126 179.75 30.6147 179 30.6147C178.271 30.6147 177.719 30.8126 177.344 31.2085C176.969 31.5835 176.781 32.1251 176.781 32.8335C176.781 33.6043 176.969 34.1668 177.344 34.521C177.719 34.8751 178.271 35.0522 179 35.0522C179.75 35.0522 180.312 34.8751 180.688 34.521C181.083 34.1668 181.281 33.6043 181.281 32.8335ZM179.812 39.8647C179.812 39.073 179.531 38.396 178.969 37.8335C178.427 37.271 177.75 36.9897 176.938 36.9897C176.167 36.9897 175.49 37.271 174.906 37.8335C174.344 38.396 174.062 39.073 174.062 39.8647C174.062 40.6564 174.344 41.3335 174.906 41.896C175.49 42.4585 176.167 42.7397 176.938 42.7397C177.75 42.7397 178.427 42.4585 178.969 41.896C179.531 41.3335 179.812 40.6564 179.812 39.8647ZM174.5 45.6147C174.5 44.8647 174.312 44.3022 173.938 43.9272C173.562 43.5522 172.99 43.3647 172.219 43.3647C171.51 43.3647 170.958 43.5522 170.562 43.9272C170.188 44.3022 170 44.8647 170 45.6147C170 46.3647 170.188 46.9272 170.562 47.3022C170.958 47.6564 171.51 47.8335 172.219 47.8335C172.99 47.8335 173.562 47.6564 173.938 47.3022C174.312 46.9272 174.5 46.3647 174.5 45.6147Z" fill="#F7DD43"/>
</svg>
